<svg version="1.2" xmlns="http://www.w3.org/2000/svg" viewBox="0 0 185 70" width="185" height="70">
	<title>Proyecto nuevo</title>
	<style>
		.s0 { fill: #ffffff } 
	</style>
	<path id="path5" fill-rule="evenodd" class="s0" d="m36.4 69.9h-4.4q-2.2 0-2.7-2.3-0.7-4.3-1.6-9.1-1-4.9-1.9-9.3-0.9-4.4-1.6-7.4-1-4.8-2-8.4-1-3.6-2-6.6v0.3q-0.2 2.1-0.4 4.3-0.1 2.1-0.1 4.3 0 6.7 0.5 12.8 0.5 6.2 1.3 11 0.7 4.8 1.2 7.5 0.2 1.2-0.4 2-0.6 0.8-2 0.6-1.9-0.3-3.2-0.5-1.3-0.1-4.3-0.1-2.4 0-4.1 0.1-1.7 0.2-3.1 0.4-2.9 0.4-2.3-2.6 0.5-2.7 1.1-7.5 0.7-4.7 1.2-10.9 0.6-6.1 0.6-12.8 0-6.8-0.6-12.9-0.5-6.1-1.2-10.9-0.6-4.8-1.1-7.5-0.5-3 2.3-2.5 1.4 0.2 3.1 0.3 1.7 0.2 4.1 0.2 2.8 0 5.5-0.2 2.7-0.2 5.1-0.5 2.3-0.3 2.6 2.1 0.8 5.9 3.2 16 2.3 10.1 5 23.3 2.7-12.4 5.1-22.7 2.5-10.4 3.1-16.6 0.3-2.3 2.6-2 2.2 0.2 4.6 0.4 2.5 0.2 5.6 0.2 2.1 0 3.2-0.1 1.1 0 2.1-0.2 0.9-0.1 2.2-0.3 1.4-0.2 2 0.5 0.7 0.6 0.4 2.2-0.5 2.6-1.1 7.4-0.7 4.8-1.2 10.9-0.6 6.1-0.6 12.9 0 6.7 0.6 12.8 0.5 6.2 1.2 10.9 0.6 4.8 1.1 7.5 0.3 1.5-0.4 2.2-0.6 0.7-2 0.5-1.3-0.2-2.2-0.4-1-0.1-2.1-0.2-1.1 0-3.2 0-2.4 0-4.1 0.1-1.6 0.2-3 0.4-3 0.4-2.4-2.5 0.6-2.8 1.3-7.6 0.6-4.7 1.2-10.9 0.5-6.1 0.5-12.8 0-2.2-0.1-4.3-0.1-2-0.3-4l-0.1-0.9q-0.4 1.8-1.5 5.8-1.1 3.9-2.2 9.5-1.2 5.4-2.6 11.7-1.4 6.3-2.8 14.2-0.5 2.2-2.7 2.2zm35.9-37.7q-3 0-4.4-3.1-1.5-3-1.5-8.6 0-3.8 1-6.3 1-2.5 2.5-3.8 1.4-1.2 2.9-1.2 1.4 0 2.5 0.6 1 0.6 1.7 1.4 0.6 0.9 1 1.7-0.1-3.5-0.4-6.3-0.3-2.9-0.6-4.3-0.2-1.3 1.1-1.1 0.6 0.1 1.2 0.2 0.7 0 1.7 0 1 0 1.7 0 0.7-0.1 1.3-0.2 1.3-0.2 1.1 1.1-0.2 1.2-0.5 3.4-0.3 2.2-0.5 4.9-0.2 2.8-0.2 5.8 0 3 0.2 5.8 0.2 2.7 0.5 4.9 0.3 2.2 0.5 3.4 0.2 1.3-1.1 1.1-0.6 0-1.3-0.1-0.7-0.1-1.7-0.1-1 0-1.7 0.1-0.8 0.1-1.4 0.1-1.3 0.3-1.1-1.1 0.3-0.6 0.4-1.5-0.5 1-1.6 2.1-1.2 1.1-3.3 1.1zm5.4-6.1v-5.4q0-2.5-0.6-4.2-0.6-1.7-2-1.7-1.1 0-1.8 1.8-0.7 1.7-0.8 4.1 0.1 2.5 0.9 3.8 0.8 1.4 1.9 1.8 1.2 0.4 2.4-0.2zm19.1 6.3q-3.6 0-6-1.6-2.4-1.6-3.6-4.2-1.2-2.7-1.2-5.9 0-3.2 1.1-5.8 1.1-2.7 3.3-4.2 2.2-1.6 5.5-1.6 2.9 0 4.8 1.1 1.8 1.2 2.8 3 0.9 1.9 0.9 4.1 0 2.4-1.2 3.9-1.1 1.6-2.8 2.3-1.6 0.7-3.2 0.7-1.1 0-2.2-0.1-1.1-0.2-2-0.5 0.8 3.5 4.1 3.5 1.5 0 2.9-0.6 1.3-0.6 2.7-2 1-1 1 0.3-0.1 1.5 0 2.9 0 1.4 0.2 2.9 0.1 1.1-1 1.2-0.9 0-1.8 0.2-0.8 0.1-1.8 0.3-1 0.1-2.5 0.1zm-1.1-11.6q1.1 0 1.9-0.7 0.7-0.7 0.7-2.8-0.1-2-0.7-2.9-0.6-0.9-1.7-0.9-1.3 0-2.1 1.9-0.9 1.8-1 4.9 0.8 0.2 1.5 0.3 0.6 0.2 1.4 0.2zm-20.2 48.8q-4.4 0-6-4-1.7-4-1.7-12.5 0-4.2-0.5-7.9-0.4-3.7-0.9-5.7-0.3-1.7 1.5-1.5 1.7 0.2 4.4 0.2 1.4 0 2.4-0.1 1 0 1.9-0.1 0.8-0.1 1.2 0.3 0.3 0.4 0.1 1.3-0.4 2.1-1.1 5.8-0.6 3.7-0.6 7.7 0 3.4 0.6 5.3 0.5 1.8 1.4 2.6 0.9 0.7 1.8 0.7 1.8 0 2.8-1.7 1.1-1.8 1.2-4.5v-2.3q0-4.2-0.6-7.9-0.6-3.7-1.1-5.7-0.2-0.9 0.2-1.3 0.4-0.5 1.2-0.3 1.7 0.2 4.5 0.2 1.4 0 2.4-0.1 1 0 1.8-0.1 1.7-0.2 1.4 1.5-0.4 2-0.8 5.7-0.5 3.7-0.5 8 0 4.3 0.5 8 0.4 3.7 0.8 5.7 0.3 1.8-1.4 1.6-0.8-0.1-1.8-0.2-1 0-2.4 0-1.4 0-2.2 0-0.8 0.1-1.7 0.2-1.7 0.3-1.4-1.6l0.3-2.4q-0.4 1.1-1.4 2.3-1 1.2-2.5 2-1.5 0.8-3.8 0.8zm29.4 0q-2.8 0-4.4-0.2-1.7-0.1-3.7-0.1-1.7 0-1.5-1.6 0.3-1.8 0.4-3.9 0.1-2.1 0-3.9 0-1 0.4-1.1 0.4-0.2 1 0.7 2.8 3.5 6.6 3.5 1.6 0 2.7-0.6 1.1-0.7 1.1-2.2 0-0.9-0.8-1.5-0.8-0.5-2.3-1.3-1.6-0.8-3.9-2-3.5-2-4.6-4.5-1-2.5-1-5.3 0-2.5 1.5-4.5 1.5-2 4.3-3.1 2.7-1.1 6.3-1.1 1.9 0 3.1 0.1 1.3 0.1 2.4 0.2 1.1 0.2 2.5 0.1 1.7 0 1.5 1.5-0.2 1.6-0.3 3.3-0.2 1.7-0.1 3.3 0.1 2.1-1.5 0.7-1.8-1.5-3.6-2.1-1.8-0.6-3.6-0.6-1.4 0-2.3 0.6-0.9 0.7-0.9 1.6 0 0.9 1 1.6 0.9 0.8 2.3 1.6 1.4 0.7 2.9 1.7 4.1 2.4 5.8 4.5 1.7 2.2 1.7 5.4 0 4.2-3.1 6.7-3.1 2.5-9.9 2.5zm20.4-34.6q-2.5 0-4.3-1.7-1.7-1.8-1.7-4.3 0-2.4 1.7-4.2 1.8-1.7 4.3-1.7 2.5 0 4.2 1.7 1.7 1.8 1.7 4.2 0 2.5-1.7 4.2-1.7 1.8-4.2 1.8zm4.2 33.7q-1.7-0.3-4.4-0.3-1.4 0-2.4 0-0.9 0.1-1.8 0.2-1.8 0.2-1.4-1.5 0.4-2.1 1-5.8 0.5-3.7 0.5-7.9 0-4.3-0.5-7.9-0.6-3.7-1-5.7-0.4-1.9 1.4-1.6 0.9 0.1 1.8 0.1 1 0.1 2.4 0.1 2.6 0 4.1-0.3 0.8-0.1 1.2 0.3 0.4 0.5 0.3 1.3-0.4 2-0.8 5.7-0.5 3.7-0.5 8 0 4.3 0.6 8 0.6 3.6 1 5.7 0.4 1.7-1.5 1.6zm17.8 0.9q-5.3 0-8.4-2.2-3.2-2.3-4.7-6-1.4-3.7-1.4-8.2 0-4.4 1.4-8.1 1.3-3.7 4.5-6 3.2-2.2 8.7-2.2 2.2 0 3.6 0.4 1.3 0.4 2.4 0.6 1.6 0.2 1.4 1.6-0.2 1.9-0.4 3.6-0.1 1.6 0 3.4 0.1 2-1.3 0.4-1.3-1.6-2.6-2.1-1.3-0.5-2.8-0.6-1.7 0.1-3 1.4-1.3 1.3-2.1 3.4-0.7 2-0.7 4.4 0 2.3 0.7 4.3 0.8 2 2.1 3.3 1.3 1.2 2.9 1.2 1.7 0 3.1-0.7 1.3-0.7 2.6-2.6 1.1-1.8 1.1 0.3-0.1 2 0.1 3.9 0.2 1.9 0.4 3.9 0.1 1.5-1.3 1.8-1 0.3-2.7 0.6-1.7 0.2-3.6 0.2zm17.1-0.4q-4.2 0-6.2-4.2-1.9-4.1-2-11.9 0-2.9 0.6-5.8 0.5-2.9 1.7-5.2 1.1-2.4 2.7-3.8 1.7-1.4 3.9-1.4 2.1 0 3.6 0.9 1.6 1 2.5 2.3l-0.1-0.5q-0.2-0.9 0.2-1.3 0.5-0.5 1.3-0.3 1.4 0.2 4 0.2 1.4 0 2.3-0.1 1 0 1.9-0.1 1.8-0.2 1.4 1.6-0.4 2.1-0.9 5.7-0.5 3.6-0.5 7.9 0 4.3 0.5 8 0.5 3.7 0.9 5.7 0.4 1.8-1.4 1.6-0.9-0.1-1.9-0.2-0.9 0-2.3 0-1.4 0-2.3 0-0.9 0.1-1.7 0.2-0.9 0.1-1.3-0.4-0.3-0.4-0.1-1.3 0.2-0.7 0.4-1.7 0.2-1 0.4-2.1-0.3 1-1.1 2.5-0.7 1.5-2.3 2.6-1.5 1.1-4.2 1.1zm7.6-8.7v-7.5q0-3.6-0.9-5.8-0.8-2.3-2.7-2.3-1.6 0-2.6 2.4-1 2.4-1.1 5.8 0.1 3.4 1.2 5.4 1.1 2 2.8 2.5 1.6 0.6 3.3-0.5zm-91.6-23.4q-0.1 0-0.2-0.1-0.2 0-0.3 0-0.1 0-0.2 0-0.1 0-0.1 0-0.5 0.1-0.3-0.3 0.2-0.4 0.4-0.9 0.2-0.5 0.3-0.9 0-0.3 0.1-0.3 0.2 0 0.5 0 0.3 0 0.5 0 0.2 0 0.4 0 0.1 0 0.3 0 0.2 0 0.3 0.1 0 0.2-0.1 0.3-0.2 0.3-0.5 0.8-0.3 0.4-0.7 1.1-0.1 0.1-0.2 0.2-0.1 0-0.2 0z"/>
</svg>