<svg version="1.2" xmlns="http://www.w3.org/2000/svg" viewBox="0 0 400 400" width="400" height="400">
	<title>Proyecto nuevo</title>
	<defs>
		<clipPath clipPathUnits="userSpaceOnUse" id="cp1">
			<path d="m114.17-9.86h162.92v205.73h-162.92zm90.1 69.62c-24.51-5-32.79 55.03-30.87 61.29 2.2 7.2 9.04 5.03 17.62 3.68 8.57-1.34 22.26-10.6 25.92-28.55 3.66-17.94-2.01-34.24-12.67-36.42zm12.67 36.42c3.66-17.94-2.01-34.24-12.67-36.42-24.51-5-32.79 55.03-30.87 61.29 2.2 7.2 9.04 5.03 17.62 3.68 8.57-1.34 22.26-10.6 25.92-28.55z"/>
		</clipPath>
	</defs>
	<style>
		.s0 { fill: #ffffff;stroke: #000000;paint-order:stroke fill markers;stroke-linecap: round;stroke-linejoin: bevel;stroke-width: .8 } 
		.s1 { fill: #ffffff;stroke: #ffffff;paint-order:stroke fill markers;stroke-linecap: round;stroke-linejoin: bevel;stroke-width: .8 } 
	</style>
	<g id="layer1">
	</g>
	<g id="layer2">
	</g>
	<g id="layer13">
		<g id="Clip-Path: text5" clip-path="url(#cp1)">
			<path id="text5" class="s0" d="m140.9 162.3c-10.2-6.4 3.4-56.5 13.4-88.7 9.4-29.9 8.6-38.3 11.5-44 4.5-8.7 48.4-11.5 69.8 2.8 23.2 15.6 25.2 89.6 1.7 123.9-4.5 6.5-91.4 9.2-96.4 6z"/>
		</g>
		<g id="path16">
		</g>
		<path id="text20" class="s0" d="m246.1 155.3c-2.3-9.1 8.9-27.2 10.3-54.3 1.9-38.9-4.8-35.3-1.1-46.1 4.6-13.6 60.1-8 64.2-5 6.2 4.5 7.6 7.8 6.7 14.9-2.7 22.2-50.8-9.9-40.5 25.2 7.1 24.2 34-1.1 34.4 9.2l0.3 9.9c0.3 7.9-24-2.4-26.4 6.4-9.7 36.1 37.2-3 41.6 9 4.4 12 2 25.3-7.2 30-18.9 9.6-61.1 9.3-82.3 0.8z"/>
	</g>
	<g id="layer6">
		<path id="text7-6" class="s1" d="m103.3 41.2c-8.9 8.2 5.7 136.4-20 130.6-46.8-8.1-5-78.7 0-112.2 0.2-16.1-98.6 90.1-57.9 203.9 7.2 20.1 27.9 55.3 35 61 5.2-14.8-31.7-56.5-16.9-72.1 3.7-4.4 8.1-5.8 13.6-2 4.5 6.6 6.6 66.8 16 79.2l4.5 5.8c14 18.4-7.3-75.9 10.9-72.8 29.7 5.1-8 83.2 1.3 90.7 11.7 9.4 30.8 25.5 38.2 22.4 13.6-5.8-8.1-139.9 1.5-205.7 16-109.9 49.5-158.8 21.4-151.6-8.5 2.1-41.7 18.2-47.6 22.8z"/>
	</g>
	<g id="layer5">
		<path id="text11" class="s1" d="m136.2 316.8l30.5-0.9c0.2 4.1 0.2 29.6 4.7 29.6 28.1 3.6 24.9-29.5 20.4-60-4.5-30.5-7.6-28.7-16.3-61.2-2.7-10.5-4.9-23.7-2.7-33.2-0.6-6.7 11.5-29.8 30.6-26.4 9.6 1.7 17.1 5 22.1 15q7.7 14.9 9.1 47.6l-22 3.6c-1.7-17.4 7.7-29.5-14.7-18.4-31.4 17.8 25.8 55.4 27.4 113.4 1.6 58.1-19.7 80.6-60 61.4-40.3-19.2-29.1-70-29.1-70.5z"/>
	</g>
	<g id="layer4">
		<path id="text10" class="s1" d="m156.4 209.5c11.8-2.7 11.9-2.8 14.7 8.9 2.8 11.6 17.6 56.7 18.5 77.3 0.9 20.6-37.1 17.8-55.4 17.4 0.8 0.2-9.7-134.6-1.3-140.1 8.3-5.3 12.6-1.9 16 0.6 5.2 3.8-10.7 104.2 9.5 104.2 20.1 0-13.9-65.6-2-68.3zm5.2-38.6c1.7-5.6 15.2-3.8 10.1 4l-7.7 12.1c-2.6 4-7.9 1.8-6.1-4z"/>
	</g>
	<g id="layer7">
		<path id="text12" class="s1" d="m229.1 172.4c-3.4-8.7 32.6-12.2 31.5-2.8-17.3 146.9 8.8 212.1-0.8 216.3-11.4 5-34.8 7.6-35 0.7-0.9-53 25.6-161 4.3-214.2z"/>
	</g>
	<g id="layer8">
		<path id="text13" class="s1" d="m299.1 288.2c0.4-6.4 11.6 1.3 11.1 9.1-0.6 7.7 2.7 24.2 0.6 39.6-2.1 15.3-1.5 41.3-32.5 43-22.7-6.8-21-74.7-20.6-102.9 0.4-28.2 2.5-75 7.8-93.1 5.2-18.1 12.6-20.2 21.1-20.2 8.6 0 21-4.6 25.3 5.8 4.3 10.3 3.1 45.2 4.2 55.9 1 10.7-16 15.4-16.3 12.3-0.3-3.1-0.9-9.7-1.8-13.6-0.8-3.8-2.3-8.5-3.7-11.1-1.5-2.5-2-3.8-5-3.8-3 0-7.7 7.2-9.6 17.2-2 10-2.6 19.7-2.6 40.1 0 20.4 1.1 38.1 3.1 46.5 2 8.3 4.8 12.4 8.4 12.4 3.6 0 6.2-3.3 8-10.1 1.8-6.7 2.1-20.7 2.5-27.1z"/>
	</g>
	<g id="layer9">
		<path id="text14" fill-rule="evenodd" class="s1" d="m359.5 278.5c-12-10.6-14.5 50.2-17.5 56.5-8.5 17.6-42.9 53.2-25.8-13.2 17.1-66.5-10.3-142.6 5.2-156.8 15.4-14.3 31-19.8 55.9-29.9 25-10 26.1 111.3 1 156.7l-17.8 32c-2 3.7-9.7-2.5-8.6-11.5 1.5-12.4 12-29.9 7.6-33.8zm0.2-83.7c-22.4-8.5-13.9 21.5-4 38.5 10 17 26.5-30 4-38.5z"/>
	</g>
</svg>